<svg xmlns="http://www.w3.org/2000/svg" width="32" height="32" viewBox="0 0 32 32">
  <!-- Priest tooltip light (baked): warm #fff4d6 at 8 % / 0 % (alpha .13) over violet #6c3fb5 at 100 % / 100 % (alpha .34), radial linear falloff (board ellipses 260x150 and 300x220), stretched. -->
  <g shape-rendering="crispEdges">
    <rect x="0" y="0" width="1" height="1" fill="#fff4d6" fill-opacity="0.116"/>
    <rect x="1" y="0" width="1" height="1" fill="#fff4d6" fill-opacity="0.121"/>
    <rect x="2" y="0" width="1" height="1" fill="#fff4d6" fill-opacity="0.125"/>
    <rect x="3" y="0" width="1" height="1" fill="#fff4d6" fill-opacity="0.122"/>
    <rect x="4" y="0" width="1" height="1" fill="#fff4d6" fill-opacity="0.117"/>
    <rect x="5" y="0" width="1" height="1" fill="#fff4d6" fill-opacity="0.111"/>
    <rect x="6" y="0" width="1" height="1" fill="#fff4d6" fill-opacity="0.104"/>
    <rect x="7" y="0" width="1" height="1" fill="#fff4d6" fill-opacity="0.098"/>
    <rect x="8" y="0" width="1" height="1" fill="#fff4d6" fill-opacity="0.092"/>
    <rect x="9" y="0" width="1" height="1" fill="#fff4d6" fill-opacity="0.086"/>
    <rect x="10" y="0" width="1" height="1" fill="#fff4d6" fill-opacity="0.079"/>
    <rect x="11" y="0" width="1" height="1" fill="#fff4d6" fill-opacity="0.073"/>
    <rect x="12" y="0" width="1" height="1" fill="#fff4d6" fill-opacity="0.067"/>
    <rect x="13" y="0" width="1" height="1" fill="#fff4d6" fill-opacity="0.060"/>
    <rect x="14" y="0" width="1" height="1" fill="#fff4d6" fill-opacity="0.054"/>
    <rect x="15" y="0" width="1" height="1" fill="#fff4d6" fill-opacity="0.048"/>
    <rect x="16" y="0" width="1" height="1" fill="#fff4d6" fill-opacity="0.041"/>
    <rect x="17" y="0" width="1" height="1" fill="#fff4d6" fill-opacity="0.035"/>
    <rect x="18" y="0" width="1" height="1" fill="#fff4d6" fill-opacity="0.029"/>
    <rect x="19" y="0" width="1" height="1" fill="#fff4d6" fill-opacity="0.022"/>
    <rect x="20" y="0" width="1" height="1" fill="#fff4d6" fill-opacity="0.016"/>
    <rect x="21" y="0" width="1" height="1" fill="#fff4d6" fill-opacity="0.010"/>
    <rect x="22" y="0" width="1" height="1" fill="#fff4d6" fill-opacity="0.003"/>
    <rect x="0" y="1" width="1" height="1" fill="#fff4d6" fill-opacity="0.110"/>
    <rect x="1" y="1" width="1" height="1" fill="#fff4d6" fill-opacity="0.114"/>
    <rect x="2" y="1" width="1" height="1" fill="#fff4d6" fill-opacity="0.115"/>
    <rect x="3" y="1" width="1" height="1" fill="#fff4d6" fill-opacity="0.114"/>
    <rect x="4" y="1" width="1" height="1" fill="#fff4d6" fill-opacity="0.111"/>
    <rect x="5" y="1" width="1" height="1" fill="#fff4d6" fill-opacity="0.106"/>
    <rect x="6" y="1" width="1" height="1" fill="#fff4d6" fill-opacity="0.101"/>
    <rect x="7" y="1" width="1" height="1" fill="#fff4d6" fill-opacity="0.095"/>
    <rect x="8" y="1" width="1" height="1" fill="#fff4d6" fill-opacity="0.090"/>
    <rect x="9" y="1" width="1" height="1" fill="#fff4d6" fill-opacity="0.084"/>
    <rect x="10" y="1" width="1" height="1" fill="#fff4d6" fill-opacity="0.077"/>
    <rect x="11" y="1" width="1" height="1" fill="#fff4d6" fill-opacity="0.071"/>
    <rect x="12" y="1" width="1" height="1" fill="#fff4d6" fill-opacity="0.065"/>
    <rect x="13" y="1" width="1" height="1" fill="#fff4d6" fill-opacity="0.059"/>
    <rect x="14" y="1" width="1" height="1" fill="#fff4d6" fill-opacity="0.053"/>
    <rect x="15" y="1" width="1" height="1" fill="#fff4d6" fill-opacity="0.047"/>
    <rect x="16" y="1" width="1" height="1" fill="#fff4d6" fill-opacity="0.040"/>
    <rect x="17" y="1" width="1" height="1" fill="#fff4d6" fill-opacity="0.034"/>
    <rect x="18" y="1" width="1" height="1" fill="#fff4d6" fill-opacity="0.028"/>
    <rect x="19" y="1" width="1" height="1" fill="#fff4d6" fill-opacity="0.021"/>
    <rect x="20" y="1" width="1" height="1" fill="#fff4d6" fill-opacity="0.015"/>
    <rect x="21" y="1" width="1" height="1" fill="#fff4d6" fill-opacity="0.009"/>
    <rect x="22" y="1" width="1" height="1" fill="#fff4d6" fill-opacity="0.003"/>
    <rect x="0" y="2" width="1" height="1" fill="#fff4d6" fill-opacity="0.102"/>
    <rect x="1" y="2" width="1" height="1" fill="#fff4d6" fill-opacity="0.105"/>
    <rect x="2" y="2" width="1" height="1" fill="#fff4d6" fill-opacity="0.106"/>
    <rect x="3" y="2" width="1" height="1" fill="#fff4d6" fill-opacity="0.105"/>
    <rect x="4" y="2" width="1" height="1" fill="#fff4d6" fill-opacity="0.103"/>
    <rect x="5" y="2" width="1" height="1" fill="#fff4d6" fill-opacity="0.099"/>
    <rect x="6" y="2" width="1" height="1" fill="#fff4d6" fill-opacity="0.095"/>
    <rect x="7" y="2" width="1" height="1" fill="#fff4d6" fill-opacity="0.090"/>
    <rect x="8" y="2" width="1" height="1" fill="#fff4d6" fill-opacity="0.085"/>
    <rect x="9" y="2" width="1" height="1" fill="#fff4d6" fill-opacity="0.080"/>
    <rect x="10" y="2" width="1" height="1" fill="#fff4d6" fill-opacity="0.074"/>
    <rect x="11" y="2" width="1" height="1" fill="#fff4d6" fill-opacity="0.068"/>
    <rect x="12" y="2" width="1" height="1" fill="#fff4d6" fill-opacity="0.062"/>
    <rect x="13" y="2" width="1" height="1" fill="#fff4d6" fill-opacity="0.056"/>
    <rect x="14" y="2" width="1" height="1" fill="#fff4d6" fill-opacity="0.050"/>
    <rect x="15" y="2" width="1" height="1" fill="#fff4d6" fill-opacity="0.044"/>
    <rect x="16" y="2" width="1" height="1" fill="#fff4d6" fill-opacity="0.038"/>
    <rect x="17" y="2" width="1" height="1" fill="#fff4d6" fill-opacity="0.032"/>
    <rect x="18" y="2" width="1" height="1" fill="#fff4d6" fill-opacity="0.026"/>
    <rect x="19" y="2" width="1" height="1" fill="#fff4d6" fill-opacity="0.020"/>
    <rect x="20" y="2" width="1" height="1" fill="#fff4d6" fill-opacity="0.014"/>
    <rect x="21" y="2" width="1" height="1" fill="#fff4d6" fill-opacity="0.007"/>
    <rect x="0" y="3" width="1" height="1" fill="#fff4d6" fill-opacity="0.094"/>
    <rect x="1" y="3" width="1" height="1" fill="#fff4d6" fill-opacity="0.095"/>
    <rect x="2" y="3" width="2" height="1" fill="#fff4d6" fill-opacity="0.096"/>
    <rect x="4" y="3" width="1" height="1" fill="#fff4d6" fill-opacity="0.094"/>
    <rect x="5" y="3" width="1" height="1" fill="#fff4d6" fill-opacity="0.091"/>
    <rect x="6" y="3" width="1" height="1" fill="#fff4d6" fill-opacity="0.088"/>
    <rect x="7" y="3" width="1" height="1" fill="#fff4d6" fill-opacity="0.084"/>
    <rect x="8" y="3" width="1" height="1" fill="#fff4d6" fill-opacity="0.079"/>
    <rect x="9" y="3" width="1" height="1" fill="#fff4d6" fill-opacity="0.074"/>
    <rect x="10" y="3" width="1" height="1" fill="#fff4d6" fill-opacity="0.069"/>
    <rect x="11" y="3" width="1" height="1" fill="#fff4d6" fill-opacity="0.064"/>
    <rect x="12" y="3" width="1" height="1" fill="#fff4d6" fill-opacity="0.058"/>
    <rect x="13" y="3" width="1" height="1" fill="#fff4d6" fill-opacity="0.053"/>
    <rect x="14" y="3" width="1" height="1" fill="#fff4d6" fill-opacity="0.047"/>
    <rect x="15" y="3" width="1" height="1" fill="#fff4d6" fill-opacity="0.041"/>
    <rect x="16" y="3" width="1" height="1" fill="#fff4d6" fill-opacity="0.035"/>
    <rect x="17" y="3" width="1" height="1" fill="#fff4d6" fill-opacity="0.029"/>
    <rect x="18" y="3" width="1" height="1" fill="#fff4d6" fill-opacity="0.023"/>
    <rect x="19" y="3" width="1" height="1" fill="#fff4d6" fill-opacity="0.017"/>
    <rect x="20" y="3" width="1" height="1" fill="#fff4d6" fill-opacity="0.011"/>
    <rect x="21" y="3" width="1" height="1" fill="#fff4d6" fill-opacity="0.005"/>
    <rect x="0" y="4" width="1" height="1" fill="#fff4d6" fill-opacity="0.085"/>
    <rect x="1" y="4" width="3" height="1" fill="#fff4d6" fill-opacity="0.086"/>
    <rect x="4" y="4" width="1" height="1" fill="#fff4d6" fill-opacity="0.085"/>
    <rect x="5" y="4" width="1" height="1" fill="#fff4d6" fill-opacity="0.083"/>
    <rect x="6" y="4" width="1" height="1" fill="#fff4d6" fill-opacity="0.080"/>
    <rect x="7" y="4" width="1" height="1" fill="#fff4d6" fill-opacity="0.076"/>
    <rect x="8" y="4" width="1" height="1" fill="#fff4d6" fill-opacity="0.072"/>
    <rect x="9" y="4" width="1" height="1" fill="#fff4d6" fill-opacity="0.068"/>
    <rect x="10" y="4" width="1" height="1" fill="#fff4d6" fill-opacity="0.063"/>
    <rect x="11" y="4" width="1" height="1" fill="#fff4d6" fill-opacity="0.058"/>
    <rect x="12" y="4" width="1" height="1" fill="#fff4d6" fill-opacity="0.053"/>
    <rect x="13" y="4" width="1" height="1" fill="#fff4d6" fill-opacity="0.048"/>
    <rect x="14" y="4" width="1" height="1" fill="#fff4d6" fill-opacity="0.043"/>
    <rect x="15" y="4" width="1" height="1" fill="#fff4d6" fill-opacity="0.037"/>
    <rect x="16" y="4" width="1" height="1" fill="#fff4d6" fill-opacity="0.031"/>
    <rect x="17" y="4" width="1" height="1" fill="#fff4d6" fill-opacity="0.026"/>
    <rect x="18" y="4" width="1" height="1" fill="#fff4d6" fill-opacity="0.020"/>
    <rect x="19" y="4" width="1" height="1" fill="#fff4d6" fill-opacity="0.014"/>
    <rect x="20" y="4" width="1" height="1" fill="#fff4d6" fill-opacity="0.008"/>
    <rect x="21" y="4" width="1" height="1" fill="#fff4d6" fill-opacity="0.002"/>
    <rect x="0" y="5" width="1" height="1" fill="#fff4d6" fill-opacity="0.075"/>
    <rect x="1" y="5" width="1" height="1" fill="#fff4d6" fill-opacity="0.076"/>
    <rect x="2" y="5" width="1" height="1" fill="#fff4d6" fill-opacity="0.077"/>
    <rect x="3" y="5" width="1" height="1" fill="#fff4d6" fill-opacity="0.076"/>
    <rect x="4" y="5" width="1" height="1" fill="#fff4d6" fill-opacity="0.075"/>
    <rect x="5" y="5" width="1" height="1" fill="#fff4d6" fill-opacity="0.074"/>
    <rect x="6" y="5" width="1" height="1" fill="#fff4d6" fill-opacity="0.071"/>
    <rect x="7" y="5" width="1" height="1" fill="#fff4d6" fill-opacity="0.068"/>
    <rect x="8" y="5" width="1" height="1" fill="#fff4d6" fill-opacity="0.065"/>
    <rect x="9" y="5" width="1" height="1" fill="#fff4d6" fill-opacity="0.061"/>
    <rect x="10" y="5" width="1" height="1" fill="#fff4d6" fill-opacity="0.057"/>
    <rect x="11" y="5" width="1" height="1" fill="#fff4d6" fill-opacity="0.052"/>
    <rect x="12" y="5" width="1" height="1" fill="#fff4d6" fill-opacity="0.047"/>
    <rect x="13" y="5" width="1" height="1" fill="#fff4d6" fill-opacity="0.042"/>
    <rect x="14" y="5" width="1" height="1" fill="#fff4d6" fill-opacity="0.037"/>
    <rect x="15" y="5" width="1" height="1" fill="#fff4d6" fill-opacity="0.032"/>
    <rect x="16" y="5" width="1" height="1" fill="#fff4d6" fill-opacity="0.027"/>
    <rect x="17" y="5" width="1" height="1" fill="#fff4d6" fill-opacity="0.021"/>
    <rect x="18" y="5" width="1" height="1" fill="#fff4d6" fill-opacity="0.016"/>
    <rect x="19" y="5" width="1" height="1" fill="#fff4d6" fill-opacity="0.010"/>
    <rect x="20" y="5" width="1" height="1" fill="#fff4d6" fill-opacity="0.004"/>
    <rect x="0" y="6" width="1" height="1" fill="#fff4d6" fill-opacity="0.066"/>
    <rect x="1" y="6" width="3" height="1" fill="#fff4d6" fill-opacity="0.067"/>
    <rect x="4" y="6" width="1" height="1" fill="#fff4d6" fill-opacity="0.066"/>
    <rect x="5" y="6" width="1" height="1" fill="#fff4d6" fill-opacity="0.064"/>
    <rect x="6" y="6" width="1" height="1" fill="#fff4d6" fill-opacity="0.062"/>
    <rect x="7" y="6" width="1" height="1" fill="#fff4d6" fill-opacity="0.060"/>
    <rect x="8" y="6" width="1" height="1" fill="#fff4d6" fill-opacity="0.057"/>
    <rect x="9" y="6" width="1" height="1" fill="#fff4d6" fill-opacity="0.053"/>
    <rect x="10" y="6" width="1" height="1" fill="#fff4d6" fill-opacity="0.049"/>
    <rect x="11" y="6" width="1" height="1" fill="#fff4d6" fill-opacity="0.045"/>
    <rect x="12" y="6" width="1" height="1" fill="#fff4d6" fill-opacity="0.041"/>
    <rect x="13" y="6" width="1" height="1" fill="#fff4d6" fill-opacity="0.036"/>
    <rect x="14" y="6" width="1" height="1" fill="#fff4d6" fill-opacity="0.031"/>
    <rect x="15" y="6" width="1" height="1" fill="#fff4d6" fill-opacity="0.027"/>
    <rect x="16" y="6" width="1" height="1" fill="#fff4d6" fill-opacity="0.021"/>
    <rect x="17" y="6" width="1" height="1" fill="#fff4d6" fill-opacity="0.016"/>
    <rect x="18" y="6" width="1" height="1" fill="#fff4d6" fill-opacity="0.011"/>
    <rect x="19" y="6" width="1" height="1" fill="#fff4d6" fill-opacity="0.005"/>
    <rect x="0" y="7" width="1" height="1" fill="#fff4d6" fill-opacity="0.056"/>
    <rect x="1" y="7" width="3" height="1" fill="#fff4d6" fill-opacity="0.057"/>
    <rect x="4" y="7" width="1" height="1" fill="#fff4d6" fill-opacity="0.056"/>
    <rect x="5" y="7" width="1" height="1" fill="#fff4d6" fill-opacity="0.055"/>
    <rect x="6" y="7" width="1" height="1" fill="#fff4d6" fill-opacity="0.053"/>
    <rect x="7" y="7" width="1" height="1" fill="#fff4d6" fill-opacity="0.051"/>
    <rect x="8" y="7" width="1" height="1" fill="#fff4d6" fill-opacity="0.048"/>
    <rect x="9" y="7" width="1" height="1" fill="#fff4d6" fill-opacity="0.045"/>
    <rect x="10" y="7" width="1" height="1" fill="#fff4d6" fill-opacity="0.042"/>
    <rect x="11" y="7" width="1" height="1" fill="#fff4d6" fill-opacity="0.038"/>
    <rect x="12" y="7" width="1" height="1" fill="#fff4d6" fill-opacity="0.034"/>
    <rect x="13" y="7" width="1" height="1" fill="#fff4d6" fill-opacity="0.030"/>
    <rect x="14" y="7" width="1" height="1" fill="#fff4d6" fill-opacity="0.025"/>
    <rect x="15" y="7" width="1" height="1" fill="#fff4d6" fill-opacity="0.020"/>
    <rect x="16" y="7" width="1" height="1" fill="#fff4d6" fill-opacity="0.016"/>
    <rect x="17" y="7" width="1" height="1" fill="#fff4d6" fill-opacity="0.011"/>
    <rect x="18" y="7" width="1" height="1" fill="#fff4d6" fill-opacity="0.005"/>
    <rect x="0" y="8" width="2" height="1" fill="#fff4d6" fill-opacity="0.047"/>
    <rect x="2" y="8" width="2" height="1" fill="#fff4d6" fill-opacity="0.048"/>
    <rect x="4" y="8" width="1" height="1" fill="#fff4d6" fill-opacity="0.047"/>
    <rect x="5" y="8" width="1" height="1" fill="#fff4d6" fill-opacity="0.046"/>
    <rect x="6" y="8" width="1" height="1" fill="#fff4d6" fill-opacity="0.044"/>
    <rect x="7" y="8" width="1" height="1" fill="#fff4d6" fill-opacity="0.042"/>
    <rect x="8" y="8" width="1" height="1" fill="#fff4d6" fill-opacity="0.040"/>
    <rect x="9" y="8" width="1" height="1" fill="#fff4d6" fill-opacity="0.037"/>
    <rect x="10" y="8" width="1" height="1" fill="#fff4d6" fill-opacity="0.034"/>
    <rect x="11" y="8" width="1" height="1" fill="#fff4d6" fill-opacity="0.030"/>
    <rect x="12" y="8" width="1" height="1" fill="#fff4d6" fill-opacity="0.026"/>
    <rect x="13" y="8" width="1" height="1" fill="#fff4d6" fill-opacity="0.022"/>
    <rect x="14" y="8" width="1" height="1" fill="#fff4d6" fill-opacity="0.018"/>
    <rect x="15" y="8" width="1" height="1" fill="#fff4d6" fill-opacity="0.014"/>
    <rect x="16" y="8" width="1" height="1" fill="#fff4d6" fill-opacity="0.009"/>
    <rect x="17" y="8" width="1" height="1" fill="#fff4d6" fill-opacity="0.004"/>
    <rect x="0" y="9" width="1" height="1" fill="#fff4d6" fill-opacity="0.037"/>
    <rect x="1" y="9" width="3" height="1" fill="#fff4d6" fill-opacity="0.038"/>
    <rect x="4" y="9" width="1" height="1" fill="#fff4d6" fill-opacity="0.037"/>
    <rect x="5" y="9" width="1" height="1" fill="#fff4d6" fill-opacity="0.036"/>
    <rect x="6" y="9" width="1" height="1" fill="#fff4d6" fill-opacity="0.035"/>
    <rect x="7" y="9" width="1" height="1" fill="#fff4d6" fill-opacity="0.033"/>
    <rect x="8" y="9" width="1" height="1" fill="#fff4d6" fill-opacity="0.031"/>
    <rect x="9" y="9" width="1" height="1" fill="#fff4d6" fill-opacity="0.028"/>
    <rect x="10" y="9" width="1" height="1" fill="#fff4d6" fill-opacity="0.025"/>
    <rect x="11" y="9" width="1" height="1" fill="#fff4d6" fill-opacity="0.022"/>
    <rect x="12" y="9" width="1" height="1" fill="#fff4d6" fill-opacity="0.019"/>
    <rect x="13" y="9" width="1" height="1" fill="#fff4d6" fill-opacity="0.015"/>
    <rect x="14" y="9" width="1" height="1" fill="#fff4d6" fill-opacity="0.011"/>
    <rect x="15" y="9" width="1" height="1" fill="#fff4d6" fill-opacity="0.007"/>
    <rect x="16" y="9" width="1" height="1" fill="#fff4d6" fill-opacity="0.003"/>
    <rect x="0" y="10" width="5" height="1" fill="#fff4d6" fill-opacity="0.028"/>
    <rect x="5" y="10" width="1" height="1" fill="#fff4d6" fill-opacity="0.027"/>
    <rect x="6" y="10" width="1" height="1" fill="#fff4d6" fill-opacity="0.025"/>
    <rect x="7" y="10" width="1" height="1" fill="#fff4d6" fill-opacity="0.024"/>
    <rect x="8" y="10" width="1" height="1" fill="#fff4d6" fill-opacity="0.022"/>
    <rect x="9" y="10" width="1" height="1" fill="#fff4d6" fill-opacity="0.019"/>
    <rect x="10" y="10" width="1" height="1" fill="#fff4d6" fill-opacity="0.017"/>
    <rect x="11" y="10" width="1" height="1" fill="#fff4d6" fill-opacity="0.014"/>
    <rect x="12" y="10" width="1" height="1" fill="#fff4d6" fill-opacity="0.010"/>
    <rect x="13" y="10" width="1" height="1" fill="#fff4d6" fill-opacity="0.007"/>
    <rect x="14" y="10" width="1" height="1" fill="#fff4d6" fill-opacity="0.003"/>
    <rect x="0" y="11" width="1" height="1" fill="#fff4d6" fill-opacity="0.018"/>
    <rect x="1" y="11" width="3" height="1" fill="#fff4d6" fill-opacity="0.019"/>
    <rect x="4" y="11" width="1" height="1" fill="#fff4d6" fill-opacity="0.018"/>
    <rect x="5" y="11" width="1" height="1" fill="#fff4d6" fill-opacity="0.017"/>
    <rect x="6" y="11" width="1" height="1" fill="#fff4d6" fill-opacity="0.016"/>
    <rect x="7" y="11" width="1" height="1" fill="#fff4d6" fill-opacity="0.014"/>
    <rect x="8" y="11" width="1" height="1" fill="#fff4d6" fill-opacity="0.013"/>
    <rect x="9" y="11" width="1" height="1" fill="#fff4d6" fill-opacity="0.010"/>
    <rect x="10" y="11" width="1" height="1" fill="#fff4d6" fill-opacity="0.008"/>
    <rect x="11" y="11" width="1" height="1" fill="#fff4d6" fill-opacity="0.005"/>
    <rect x="12" y="11" width="1" height="1" fill="#fff4d6" fill-opacity="0.002"/>
    <rect x="0" y="12" width="1" height="1" fill="#fff4d6" fill-opacity="0.008"/>
    <rect x="1" y="12" width="3" height="1" fill="#fff4d6" fill-opacity="0.009"/>
    <rect x="4" y="12" width="2" height="1" fill="#fff4d6" fill-opacity="0.008"/>
    <rect x="6" y="12" width="1" height="1" fill="#fff4d6" fill-opacity="0.007"/>
    <rect x="7" y="12" width="1" height="1" fill="#fff4d6" fill-opacity="0.005"/>
    <rect x="8" y="12" width="1" height="1" fill="#fff4d6" fill-opacity="0.003"/>
    <rect x="9" y="12" width="1" height="1" fill="#fff4d6" fill-opacity="0.002"/>
    <rect x="30" y="12" width="2" height="1" fill="#6c3fb5" fill-opacity="0.002"/>
    <rect x="24" y="13" width="1" height="1" fill="#6c3fb5" fill-opacity="0.002"/>
    <rect x="25" y="13" width="1" height="1" fill="#6c3fb5" fill-opacity="0.005"/>
    <rect x="26" y="13" width="1" height="1" fill="#6c3fb5" fill-opacity="0.008"/>
    <rect x="27" y="13" width="1" height="1" fill="#6c3fb5" fill-opacity="0.011"/>
    <rect x="28" y="13" width="1" height="1" fill="#6c3fb5" fill-opacity="0.014"/>
    <rect x="29" y="13" width="1" height="1" fill="#6c3fb5" fill-opacity="0.016"/>
    <rect x="30" y="13" width="1" height="1" fill="#6c3fb5" fill-opacity="0.017"/>
    <rect x="31" y="13" width="1" height="1" fill="#6c3fb5" fill-opacity="0.018"/>
    <rect x="21" y="14" width="1" height="1" fill="#6c3fb5" fill-opacity="0.002"/>
    <rect x="22" y="14" width="1" height="1" fill="#6c3fb5" fill-opacity="0.006"/>
    <rect x="23" y="14" width="1" height="1" fill="#6c3fb5" fill-opacity="0.012"/>
    <rect x="24" y="14" width="1" height="1" fill="#6c3fb5" fill-opacity="0.017"/>
    <rect x="25" y="14" width="1" height="1" fill="#6c3fb5" fill-opacity="0.021"/>
    <rect x="26" y="14" width="1" height="1" fill="#6c3fb5" fill-opacity="0.025"/>
    <rect x="27" y="14" width="1" height="1" fill="#6c3fb5" fill-opacity="0.028"/>
    <rect x="28" y="14" width="1" height="1" fill="#6c3fb5" fill-opacity="0.031"/>
    <rect x="29" y="14" width="1" height="1" fill="#6c3fb5" fill-opacity="0.033"/>
    <rect x="30" y="14" width="1" height="1" fill="#6c3fb5" fill-opacity="0.034"/>
    <rect x="31" y="14" width="1" height="1" fill="#6c3fb5" fill-opacity="0.035"/>
    <rect x="19" y="15" width="1" height="1" fill="#6c3fb5" fill-opacity="0.003"/>
    <rect x="20" y="15" width="1" height="1" fill="#6c3fb5" fill-opacity="0.009"/>
    <rect x="21" y="15" width="1" height="1" fill="#6c3fb5" fill-opacity="0.015"/>
    <rect x="22" y="15" width="1" height="1" fill="#6c3fb5" fill-opacity="0.022"/>
    <rect x="23" y="15" width="1" height="1" fill="#6c3fb5" fill-opacity="0.028"/>
    <rect x="24" y="15" width="1" height="1" fill="#6c3fb5" fill-opacity="0.033"/>
    <rect x="25" y="15" width="1" height="1" fill="#6c3fb5" fill-opacity="0.038"/>
    <rect x="26" y="15" width="1" height="1" fill="#6c3fb5" fill-opacity="0.042"/>
    <rect x="27" y="15" width="1" height="1" fill="#6c3fb5" fill-opacity="0.045"/>
    <rect x="28" y="15" width="1" height="1" fill="#6c3fb5" fill-opacity="0.048"/>
    <rect x="29" y="15" width="1" height="1" fill="#6c3fb5" fill-opacity="0.050"/>
    <rect x="30" y="15" width="2" height="1" fill="#6c3fb5" fill-opacity="0.052"/>
    <rect x="18" y="16" width="1" height="1" fill="#6c3fb5" fill-opacity="0.008"/>
    <rect x="19" y="16" width="1" height="1" fill="#6c3fb5" fill-opacity="0.016"/>
    <rect x="20" y="16" width="1" height="1" fill="#6c3fb5" fill-opacity="0.024"/>
    <rect x="21" y="16" width="1" height="1" fill="#6c3fb5" fill-opacity="0.031"/>
    <rect x="22" y="16" width="1" height="1" fill="#6c3fb5" fill-opacity="0.037"/>
    <rect x="23" y="16" width="1" height="1" fill="#6c3fb5" fill-opacity="0.044"/>
    <rect x="24" y="16" width="1" height="1" fill="#6c3fb5" fill-opacity="0.049"/>
    <rect x="25" y="16" width="1" height="1" fill="#6c3fb5" fill-opacity="0.054"/>
    <rect x="26" y="16" width="1" height="1" fill="#6c3fb5" fill-opacity="0.059"/>
    <rect x="27" y="16" width="1" height="1" fill="#6c3fb5" fill-opacity="0.062"/>
    <rect x="28" y="16" width="1" height="1" fill="#6c3fb5" fill-opacity="0.065"/>
    <rect x="29" y="16" width="1" height="1" fill="#6c3fb5" fill-opacity="0.068"/>
    <rect x="30" y="16" width="1" height="1" fill="#6c3fb5" fill-opacity="0.069"/>
    <rect x="31" y="16" width="1" height="1" fill="#6c3fb5" fill-opacity="0.070"/>
    <rect x="16" y="17" width="1" height="1" fill="#6c3fb5" fill-opacity="0.004"/>
    <rect x="17" y="17" width="1" height="1" fill="#6c3fb5" fill-opacity="0.013"/>
    <rect x="18" y="17" width="1" height="1" fill="#6c3fb5" fill-opacity="0.022"/>
    <rect x="19" y="17" width="1" height="1" fill="#6c3fb5" fill-opacity="0.030"/>
    <rect x="20" y="17" width="1" height="1" fill="#6c3fb5" fill-opacity="0.038"/>
    <rect x="21" y="17" width="1" height="1" fill="#6c3fb5" fill-opacity="0.046"/>
    <rect x="22" y="17" width="1" height="1" fill="#6c3fb5" fill-opacity="0.053"/>
    <rect x="23" y="17" width="1" height="1" fill="#6c3fb5" fill-opacity="0.059"/>
    <rect x="24" y="17" width="1" height="1" fill="#6c3fb5" fill-opacity="0.065"/>
    <rect x="25" y="17" width="1" height="1" fill="#6c3fb5" fill-opacity="0.071"/>
    <rect x="26" y="17" width="1" height="1" fill="#6c3fb5" fill-opacity="0.075"/>
    <rect x="27" y="17" width="1" height="1" fill="#6c3fb5" fill-opacity="0.079"/>
    <rect x="28" y="17" width="1" height="1" fill="#6c3fb5" fill-opacity="0.082"/>
    <rect x="29" y="17" width="1" height="1" fill="#6c3fb5" fill-opacity="0.085"/>
    <rect x="30" y="17" width="1" height="1" fill="#6c3fb5" fill-opacity="0.086"/>
    <rect x="31" y="17" width="1" height="1" fill="#6c3fb5" fill-opacity="0.087"/>
    <rect x="15" y="18" width="1" height="1" fill="#6c3fb5" fill-opacity="0.006"/>
    <rect x="16" y="18" width="1" height="1" fill="#6c3fb5" fill-opacity="0.016"/>
    <rect x="17" y="18" width="1" height="1" fill="#6c3fb5" fill-opacity="0.026"/>
    <rect x="18" y="18" width="1" height="1" fill="#6c3fb5" fill-opacity="0.035"/>
    <rect x="19" y="18" width="1" height="1" fill="#6c3fb5" fill-opacity="0.044"/>
    <rect x="20" y="18" width="1" height="1" fill="#6c3fb5" fill-opacity="0.053"/>
    <rect x="21" y="18" width="1" height="1" fill="#6c3fb5" fill-opacity="0.061"/>
    <rect x="22" y="18" width="1" height="1" fill="#6c3fb5" fill-opacity="0.068"/>
    <rect x="23" y="18" width="1" height="1" fill="#6c3fb5" fill-opacity="0.075"/>
    <rect x="24" y="18" width="1" height="1" fill="#6c3fb5" fill-opacity="0.081"/>
    <rect x="25" y="18" width="1" height="1" fill="#6c3fb5" fill-opacity="0.087"/>
    <rect x="26" y="18" width="1" height="1" fill="#6c3fb5" fill-opacity="0.092"/>
    <rect x="27" y="18" width="1" height="1" fill="#6c3fb5" fill-opacity="0.096"/>
    <rect x="28" y="18" width="1" height="1" fill="#6c3fb5" fill-opacity="0.100"/>
    <rect x="29" y="18" width="1" height="1" fill="#6c3fb5" fill-opacity="0.102"/>
    <rect x="30" y="18" width="1" height="1" fill="#6c3fb5" fill-opacity="0.104"/>
    <rect x="31" y="18" width="1" height="1" fill="#6c3fb5" fill-opacity="0.105"/>
    <rect x="14" y="19" width="1" height="1" fill="#6c3fb5" fill-opacity="0.008"/>
    <rect x="15" y="19" width="1" height="1" fill="#6c3fb5" fill-opacity="0.018"/>
    <rect x="16" y="19" width="1" height="1" fill="#6c3fb5" fill-opacity="0.029"/>
    <rect x="17" y="19" width="1" height="1" fill="#6c3fb5" fill-opacity="0.039"/>
    <rect x="18" y="19" width="1" height="1" fill="#6c3fb5" fill-opacity="0.048"/>
    <rect x="19" y="19" width="1" height="1" fill="#6c3fb5" fill-opacity="0.058"/>
    <rect x="20" y="19" width="1" height="1" fill="#6c3fb5" fill-opacity="0.067"/>
    <rect x="21" y="19" width="1" height="1" fill="#6c3fb5" fill-opacity="0.075"/>
    <rect x="22" y="19" width="1" height="1" fill="#6c3fb5" fill-opacity="0.083"/>
    <rect x="23" y="19" width="1" height="1" fill="#6c3fb5" fill-opacity="0.090"/>
    <rect x="24" y="19" width="1" height="1" fill="#6c3fb5" fill-opacity="0.097"/>
    <rect x="25" y="19" width="1" height="1" fill="#6c3fb5" fill-opacity="0.103"/>
    <rect x="26" y="19" width="1" height="1" fill="#6c3fb5" fill-opacity="0.108"/>
    <rect x="27" y="19" width="1" height="1" fill="#6c3fb5" fill-opacity="0.113"/>
    <rect x="28" y="19" width="1" height="1" fill="#6c3fb5" fill-opacity="0.117"/>
    <rect x="29" y="19" width="1" height="1" fill="#6c3fb5" fill-opacity="0.119"/>
    <rect x="30" y="19" width="1" height="1" fill="#6c3fb5" fill-opacity="0.121"/>
    <rect x="31" y="19" width="1" height="1" fill="#6c3fb5" fill-opacity="0.122"/>
    <rect x="13" y="20" width="1" height="1" fill="#6c3fb5" fill-opacity="0.007"/>
    <rect x="14" y="20" width="1" height="1" fill="#6c3fb5" fill-opacity="0.019"/>
    <rect x="15" y="20" width="1" height="1" fill="#6c3fb5" fill-opacity="0.030"/>
    <rect x="16" y="20" width="1" height="1" fill="#6c3fb5" fill-opacity="0.041"/>
    <rect x="17" y="20" width="1" height="1" fill="#6c3fb5" fill-opacity="0.051"/>
    <rect x="18" y="20" width="1" height="1" fill="#6c3fb5" fill-opacity="0.061"/>
    <rect x="19" y="20" width="1" height="1" fill="#6c3fb5" fill-opacity="0.071"/>
    <rect x="20" y="20" width="1" height="1" fill="#6c3fb5" fill-opacity="0.080"/>
    <rect x="21" y="20" width="1" height="1" fill="#6c3fb5" fill-opacity="0.089"/>
    <rect x="22" y="20" width="1" height="1" fill="#6c3fb5" fill-opacity="0.098"/>
    <rect x="23" y="20" width="1" height="1" fill="#6c3fb5" fill-opacity="0.105"/>
    <rect x="24" y="20" width="1" height="1" fill="#6c3fb5" fill-opacity="0.113"/>
    <rect x="25" y="20" width="1" height="1" fill="#6c3fb5" fill-opacity="0.119"/>
    <rect x="26" y="20" width="1" height="1" fill="#6c3fb5" fill-opacity="0.125"/>
    <rect x="27" y="20" width="1" height="1" fill="#6c3fb5" fill-opacity="0.129"/>
    <rect x="28" y="20" width="1" height="1" fill="#6c3fb5" fill-opacity="0.133"/>
    <rect x="29" y="20" width="1" height="1" fill="#6c3fb5" fill-opacity="0.136"/>
    <rect x="30" y="20" width="1" height="1" fill="#6c3fb5" fill-opacity="0.138"/>
    <rect x="31" y="20" width="1" height="1" fill="#6c3fb5" fill-opacity="0.140"/>
    <rect x="12" y="21" width="1" height="1" fill="#6c3fb5" fill-opacity="0.006"/>
    <rect x="13" y="21" width="1" height="1" fill="#6c3fb5" fill-opacity="0.017"/>
    <rect x="14" y="21" width="1" height="1" fill="#6c3fb5" fill-opacity="0.029"/>
    <rect x="15" y="21" width="1" height="1" fill="#6c3fb5" fill-opacity="0.041"/>
    <rect x="16" y="21" width="1" height="1" fill="#6c3fb5" fill-opacity="0.052"/>
    <rect x="17" y="21" width="1" height="1" fill="#6c3fb5" fill-opacity="0.063"/>
    <rect x="18" y="21" width="1" height="1" fill="#6c3fb5" fill-opacity="0.073"/>
    <rect x="19" y="21" width="1" height="1" fill="#6c3fb5" fill-opacity="0.084"/>
    <rect x="20" y="21" width="1" height="1" fill="#6c3fb5" fill-opacity="0.094"/>
    <rect x="21" y="21" width="1" height="1" fill="#6c3fb5" fill-opacity="0.103"/>
    <rect x="22" y="21" width="1" height="1" fill="#6c3fb5" fill-opacity="0.112"/>
    <rect x="23" y="21" width="1" height="1" fill="#6c3fb5" fill-opacity="0.120"/>
    <rect x="24" y="21" width="1" height="1" fill="#6c3fb5" fill-opacity="0.128"/>
    <rect x="25" y="21" width="1" height="1" fill="#6c3fb5" fill-opacity="0.135"/>
    <rect x="26" y="21" width="1" height="1" fill="#6c3fb5" fill-opacity="0.141"/>
    <rect x="27" y="21" width="1" height="1" fill="#6c3fb5" fill-opacity="0.146"/>
    <rect x="28" y="21" width="1" height="1" fill="#6c3fb5" fill-opacity="0.150"/>
    <rect x="29" y="21" width="1" height="1" fill="#6c3fb5" fill-opacity="0.154"/>
    <rect x="30" y="21" width="1" height="1" fill="#6c3fb5" fill-opacity="0.156"/>
    <rect x="31" y="21" width="1" height="1" fill="#6c3fb5" fill-opacity="0.157"/>
    <rect x="11" y="22" width="1" height="1" fill="#6c3fb5" fill-opacity="0.003"/>
    <rect x="12" y="22" width="1" height="1" fill="#6c3fb5" fill-opacity="0.015"/>
    <rect x="13" y="22" width="1" height="1" fill="#6c3fb5" fill-opacity="0.027"/>
    <rect x="14" y="22" width="1" height="1" fill="#6c3fb5" fill-opacity="0.039"/>
    <rect x="15" y="22" width="1" height="1" fill="#6c3fb5" fill-opacity="0.051"/>
    <rect x="16" y="22" width="1" height="1" fill="#6c3fb5" fill-opacity="0.063"/>
    <rect x="17" y="22" width="1" height="1" fill="#6c3fb5" fill-opacity="0.074"/>
    <rect x="18" y="22" width="1" height="1" fill="#6c3fb5" fill-opacity="0.085"/>
    <rect x="19" y="22" width="1" height="1" fill="#6c3fb5" fill-opacity="0.096"/>
    <rect x="20" y="22" width="1" height="1" fill="#6c3fb5" fill-opacity="0.106"/>
    <rect x="21" y="22" width="1" height="1" fill="#6c3fb5" fill-opacity="0.116"/>
    <rect x="22" y="22" width="1" height="1" fill="#6c3fb5" fill-opacity="0.126"/>
    <rect x="23" y="22" width="1" height="1" fill="#6c3fb5" fill-opacity="0.134"/>
    <rect x="24" y="22" width="1" height="1" fill="#6c3fb5" fill-opacity="0.143"/>
    <rect x="25" y="22" width="1" height="1" fill="#6c3fb5" fill-opacity="0.150"/>
    <rect x="26" y="22" width="1" height="1" fill="#6c3fb5" fill-opacity="0.157"/>
    <rect x="27" y="22" width="1" height="1" fill="#6c3fb5" fill-opacity="0.162"/>
    <rect x="28" y="22" width="1" height="1" fill="#6c3fb5" fill-opacity="0.167"/>
    <rect x="29" y="22" width="1" height="1" fill="#6c3fb5" fill-opacity="0.171"/>
    <rect x="30" y="22" width="1" height="1" fill="#6c3fb5" fill-opacity="0.173"/>
    <rect x="31" y="22" width="1" height="1" fill="#6c3fb5" fill-opacity="0.174"/>
    <rect x="11" y="23" width="1" height="1" fill="#6c3fb5" fill-opacity="0.010"/>
    <rect x="12" y="23" width="1" height="1" fill="#6c3fb5" fill-opacity="0.023"/>
    <rect x="13" y="23" width="1" height="1" fill="#6c3fb5" fill-opacity="0.036"/>
    <rect x="14" y="23" width="1" height="1" fill="#6c3fb5" fill-opacity="0.048"/>
    <rect x="15" y="23" width="1" height="1" fill="#6c3fb5" fill-opacity="0.061"/>
    <rect x="16" y="23" width="1" height="1" fill="#6c3fb5" fill-opacity="0.073"/>
    <rect x="17" y="23" width="1" height="1" fill="#6c3fb5" fill-opacity="0.084"/>
    <rect x="18" y="23" width="1" height="1" fill="#6c3fb5" fill-opacity="0.096"/>
    <rect x="19" y="23" width="1" height="1" fill="#6c3fb5" fill-opacity="0.107"/>
    <rect x="20" y="23" width="1" height="1" fill="#6c3fb5" fill-opacity="0.118"/>
    <rect x="21" y="23" width="1" height="1" fill="#6c3fb5" fill-opacity="0.129"/>
    <rect x="22" y="23" width="1" height="1" fill="#6c3fb5" fill-opacity="0.139"/>
    <rect x="23" y="23" width="1" height="1" fill="#6c3fb5" fill-opacity="0.148"/>
    <rect x="24" y="23" width="1" height="1" fill="#6c3fb5" fill-opacity="0.157"/>
    <rect x="25" y="23" width="1" height="1" fill="#6c3fb5" fill-opacity="0.165"/>
    <rect x="26" y="23" width="1" height="1" fill="#6c3fb5" fill-opacity="0.172"/>
    <rect x="27" y="23" width="1" height="1" fill="#6c3fb5" fill-opacity="0.178"/>
    <rect x="28" y="23" width="1" height="1" fill="#6c3fb5" fill-opacity="0.184"/>
    <rect x="29" y="23" width="1" height="1" fill="#6c3fb5" fill-opacity="0.188"/>
    <rect x="30" y="23" width="1" height="1" fill="#6c3fb5" fill-opacity="0.190"/>
    <rect x="31" y="23" width="1" height="1" fill="#6c3fb5" fill-opacity="0.192"/>
    <rect x="10" y="24" width="1" height="1" fill="#6c3fb5" fill-opacity="0.005"/>
    <rect x="11" y="24" width="1" height="1" fill="#6c3fb5" fill-opacity="0.018"/>
    <rect x="12" y="24" width="1" height="1" fill="#6c3fb5" fill-opacity="0.031"/>
    <rect x="13" y="24" width="1" height="1" fill="#6c3fb5" fill-opacity="0.044"/>
    <rect x="14" y="24" width="1" height="1" fill="#6c3fb5" fill-opacity="0.057"/>
    <rect x="15" y="24" width="1" height="1" fill="#6c3fb5" fill-opacity="0.069"/>
    <rect x="16" y="24" width="1" height="1" fill="#6c3fb5" fill-opacity="0.082"/>
    <rect x="17" y="24" width="1" height="1" fill="#6c3fb5" fill-opacity="0.094"/>
    <rect x="18" y="24" width="1" height="1" fill="#6c3fb5" fill-opacity="0.106"/>
    <rect x="19" y="24" width="1" height="1" fill="#6c3fb5" fill-opacity="0.118"/>
    <rect x="20" y="24" width="1" height="1" fill="#6c3fb5" fill-opacity="0.129"/>
    <rect x="21" y="24" width="1" height="1" fill="#6c3fb5" fill-opacity="0.140"/>
    <rect x="22" y="24" width="1" height="1" fill="#6c3fb5" fill-opacity="0.151"/>
    <rect x="23" y="24" width="1" height="1" fill="#6c3fb5" fill-opacity="0.161"/>
    <rect x="24" y="24" width="1" height="1" fill="#6c3fb5" fill-opacity="0.171"/>
    <rect x="25" y="24" width="1" height="1" fill="#6c3fb5" fill-opacity="0.179"/>
    <rect x="26" y="24" width="1" height="1" fill="#6c3fb5" fill-opacity="0.187"/>
    <rect x="27" y="24" width="1" height="1" fill="#6c3fb5" fill-opacity="0.194"/>
    <rect x="28" y="24" width="1" height="1" fill="#6c3fb5" fill-opacity="0.200"/>
    <rect x="29" y="24" width="1" height="1" fill="#6c3fb5" fill-opacity="0.204"/>
    <rect x="30" y="24" width="1" height="1" fill="#6c3fb5" fill-opacity="0.208"/>
    <rect x="31" y="24" width="1" height="1" fill="#6c3fb5" fill-opacity="0.209"/>
    <rect x="10" y="25" width="1" height="1" fill="#6c3fb5" fill-opacity="0.011"/>
    <rect x="11" y="25" width="1" height="1" fill="#6c3fb5" fill-opacity="0.025"/>
    <rect x="12" y="25" width="1" height="1" fill="#6c3fb5" fill-opacity="0.038"/>
    <rect x="13" y="25" width="1" height="1" fill="#6c3fb5" fill-opacity="0.051"/>
    <rect x="14" y="25" width="1" height="1" fill="#6c3fb5" fill-opacity="0.064"/>
    <rect x="15" y="25" width="1" height="1" fill="#6c3fb5" fill-opacity="0.077"/>
    <rect x="16" y="25" width="1" height="1" fill="#6c3fb5" fill-opacity="0.090"/>
    <rect x="17" y="25" width="1" height="1" fill="#6c3fb5" fill-opacity="0.103"/>
    <rect x="18" y="25" width="1" height="1" fill="#6c3fb5" fill-opacity="0.115"/>
    <rect x="19" y="25" width="1" height="1" fill="#6c3fb5" fill-opacity="0.128"/>
    <rect x="20" y="25" width="1" height="1" fill="#6c3fb5" fill-opacity="0.140"/>
    <rect x="21" y="25" width="1" height="1" fill="#6c3fb5" fill-opacity="0.151"/>
    <rect x="22" y="25" width="1" height="1" fill="#6c3fb5" fill-opacity="0.163"/>
    <rect x="23" y="25" width="1" height="1" fill="#6c3fb5" fill-opacity="0.173"/>
    <rect x="24" y="25" width="1" height="1" fill="#6c3fb5" fill-opacity="0.184"/>
    <rect x="25" y="25" width="1" height="1" fill="#6c3fb5" fill-opacity="0.193"/>
    <rect x="26" y="25" width="1" height="1" fill="#6c3fb5" fill-opacity="0.202"/>
    <rect x="27" y="25" width="1" height="1" fill="#6c3fb5" fill-opacity="0.210"/>
    <rect x="28" y="25" width="1" height="1" fill="#6c3fb5" fill-opacity="0.216"/>
    <rect x="29" y="25" width="1" height="1" fill="#6c3fb5" fill-opacity="0.221"/>
    <rect x="30" y="25" width="1" height="1" fill="#6c3fb5" fill-opacity="0.225"/>
    <rect x="31" y="25" width="1" height="1" fill="#6c3fb5" fill-opacity="0.226"/>
    <rect x="9" y="26" width="1" height="1" fill="#6c3fb5" fill-opacity="0.004"/>
    <rect x="10" y="26" width="1" height="1" fill="#6c3fb5" fill-opacity="0.017"/>
    <rect x="11" y="26" width="1" height="1" fill="#6c3fb5" fill-opacity="0.030"/>
    <rect x="12" y="26" width="1" height="1" fill="#6c3fb5" fill-opacity="0.044"/>
    <rect x="13" y="26" width="1" height="1" fill="#6c3fb5" fill-opacity="0.058"/>
    <rect x="14" y="26" width="1" height="1" fill="#6c3fb5" fill-opacity="0.071"/>
    <rect x="15" y="26" width="1" height="1" fill="#6c3fb5" fill-opacity="0.084"/>
    <rect x="16" y="26" width="1" height="1" fill="#6c3fb5" fill-opacity="0.098"/>
    <rect x="17" y="26" width="1" height="1" fill="#6c3fb5" fill-opacity="0.111"/>
    <rect x="18" y="26" width="1" height="1" fill="#6c3fb5" fill-opacity="0.124"/>
    <rect x="19" y="26" width="1" height="1" fill="#6c3fb5" fill-opacity="0.137"/>
    <rect x="20" y="26" width="1" height="1" fill="#6c3fb5" fill-opacity="0.149"/>
    <rect x="21" y="26" width="1" height="1" fill="#6c3fb5" fill-opacity="0.161"/>
    <rect x="22" y="26" width="1" height="1" fill="#6c3fb5" fill-opacity="0.173"/>
    <rect x="23" y="26" width="1" height="1" fill="#6c3fb5" fill-opacity="0.185"/>
    <rect x="24" y="26" width="1" height="1" fill="#6c3fb5" fill-opacity="0.196"/>
    <rect x="25" y="26" width="1" height="1" fill="#6c3fb5" fill-opacity="0.206"/>
    <rect x="26" y="26" width="1" height="1" fill="#6c3fb5" fill-opacity="0.216"/>
    <rect x="27" y="26" width="1" height="1" fill="#6c3fb5" fill-opacity="0.224"/>
    <rect x="28" y="26" width="1" height="1" fill="#6c3fb5" fill-opacity="0.232"/>
    <rect x="29" y="26" width="1" height="1" fill="#6c3fb5" fill-opacity="0.238"/>
    <rect x="30" y="26" width="1" height="1" fill="#6c3fb5" fill-opacity="0.242"/>
    <rect x="31" y="26" width="1" height="1" fill="#6c3fb5" fill-opacity="0.244"/>
    <rect x="9" y="27" width="1" height="1" fill="#6c3fb5" fill-opacity="0.008"/>
    <rect x="10" y="27" width="1" height="1" fill="#6c3fb5" fill-opacity="0.021"/>
    <rect x="11" y="27" width="1" height="1" fill="#6c3fb5" fill-opacity="0.035"/>
    <rect x="12" y="27" width="1" height="1" fill="#6c3fb5" fill-opacity="0.049"/>
    <rect x="13" y="27" width="1" height="1" fill="#6c3fb5" fill-opacity="0.063"/>
    <rect x="14" y="27" width="1" height="1" fill="#6c3fb5" fill-opacity="0.077"/>
    <rect x="15" y="27" width="1" height="1" fill="#6c3fb5" fill-opacity="0.090"/>
    <rect x="16" y="27" width="1" height="1" fill="#6c3fb5" fill-opacity="0.104"/>
    <rect x="17" y="27" width="1" height="1" fill="#6c3fb5" fill-opacity="0.117"/>
    <rect x="18" y="27" width="1" height="1" fill="#6c3fb5" fill-opacity="0.131"/>
    <rect x="19" y="27" width="1" height="1" fill="#6c3fb5" fill-opacity="0.144"/>
    <rect x="20" y="27" width="1" height="1" fill="#6c3fb5" fill-opacity="0.157"/>
    <rect x="21" y="27" width="1" height="1" fill="#6c3fb5" fill-opacity="0.170"/>
    <rect x="22" y="27" width="1" height="1" fill="#6c3fb5" fill-opacity="0.183"/>
    <rect x="23" y="27" width="1" height="1" fill="#6c3fb5" fill-opacity="0.195"/>
    <rect x="24" y="27" width="1" height="1" fill="#6c3fb5" fill-opacity="0.207"/>
    <rect x="25" y="27" width="1" height="1" fill="#6c3fb5" fill-opacity="0.218"/>
    <rect x="26" y="27" width="1" height="1" fill="#6c3fb5" fill-opacity="0.229"/>
    <rect x="27" y="27" width="1" height="1" fill="#6c3fb5" fill-opacity="0.238"/>
    <rect x="28" y="27" width="1" height="1" fill="#6c3fb5" fill-opacity="0.247"/>
    <rect x="29" y="27" width="1" height="1" fill="#6c3fb5" fill-opacity="0.254"/>
    <rect x="30" y="27" width="1" height="1" fill="#6c3fb5" fill-opacity="0.259"/>
    <rect x="31" y="27" width="1" height="1" fill="#6c3fb5" fill-opacity="0.261"/>
    <rect x="9" y="28" width="1" height="1" fill="#6c3fb5" fill-opacity="0.011"/>
    <rect x="10" y="28" width="1" height="1" fill="#6c3fb5" fill-opacity="0.025"/>
    <rect x="11" y="28" width="1" height="1" fill="#6c3fb5" fill-opacity="0.039"/>
    <rect x="12" y="28" width="1" height="1" fill="#6c3fb5" fill-opacity="0.053"/>
    <rect x="13" y="28" width="1" height="1" fill="#6c3fb5" fill-opacity="0.067"/>
    <rect x="14" y="28" width="1" height="1" fill="#6c3fb5" fill-opacity="0.081"/>
    <rect x="15" y="28" width="1" height="1" fill="#6c3fb5" fill-opacity="0.095"/>
    <rect x="16" y="28" width="1" height="1" fill="#6c3fb5" fill-opacity="0.109"/>
    <rect x="17" y="28" width="1" height="1" fill="#6c3fb5" fill-opacity="0.123"/>
    <rect x="18" y="28" width="1" height="1" fill="#6c3fb5" fill-opacity="0.137"/>
    <rect x="19" y="28" width="1" height="1" fill="#6c3fb5" fill-opacity="0.150"/>
    <rect x="20" y="28" width="1" height="1" fill="#6c3fb5" fill-opacity="0.164"/>
    <rect x="21" y="28" width="1" height="1" fill="#6c3fb5" fill-opacity="0.177"/>
    <rect x="22" y="28" width="1" height="1" fill="#6c3fb5" fill-opacity="0.191"/>
    <rect x="23" y="28" width="1" height="1" fill="#6c3fb5" fill-opacity="0.203"/>
    <rect x="24" y="28" width="1" height="1" fill="#6c3fb5" fill-opacity="0.216"/>
    <rect x="25" y="28" width="1" height="1" fill="#6c3fb5" fill-opacity="0.228"/>
    <rect x="26" y="28" width="1" height="1" fill="#6c3fb5" fill-opacity="0.240"/>
    <rect x="27" y="28" width="1" height="1" fill="#6c3fb5" fill-opacity="0.251"/>
    <rect x="28" y="28" width="1" height="1" fill="#6c3fb5" fill-opacity="0.261"/>
    <rect x="29" y="28" width="1" height="1" fill="#6c3fb5" fill-opacity="0.269"/>
    <rect x="30" y="28" width="1" height="1" fill="#6c3fb5" fill-opacity="0.275"/>
    <rect x="31" y="28" width="1" height="1" fill="#6c3fb5" fill-opacity="0.278"/>
    <rect x="8" y="29" width="1" height="1" fill="#6c3fb5" fill-opacity="0.002"/>
    <rect x="9" y="29" width="1" height="1" fill="#6c3fb5" fill-opacity="0.014"/>
    <rect x="10" y="29" width="1" height="1" fill="#6c3fb5" fill-opacity="0.028"/>
    <rect x="11" y="29" width="1" height="1" fill="#6c3fb5" fill-opacity="0.042"/>
    <rect x="12" y="29" width="1" height="1" fill="#6c3fb5" fill-opacity="0.057"/>
    <rect x="13" y="29" width="1" height="1" fill="#6c3fb5" fill-opacity="0.071"/>
    <rect x="14" y="29" width="1" height="1" fill="#6c3fb5" fill-opacity="0.085"/>
    <rect x="15" y="29" width="1" height="1" fill="#6c3fb5" fill-opacity="0.099"/>
    <rect x="16" y="29" width="1" height="1" fill="#6c3fb5" fill-opacity="0.113"/>
    <rect x="17" y="29" width="1" height="1" fill="#6c3fb5" fill-opacity="0.127"/>
    <rect x="18" y="29" width="1" height="1" fill="#6c3fb5" fill-opacity="0.141"/>
    <rect x="19" y="29" width="1" height="1" fill="#6c3fb5" fill-opacity="0.155"/>
    <rect x="20" y="29" width="1" height="1" fill="#6c3fb5" fill-opacity="0.169"/>
    <rect x="21" y="29" width="1" height="1" fill="#6c3fb5" fill-opacity="0.183"/>
    <rect x="22" y="29" width="1" height="1" fill="#6c3fb5" fill-opacity="0.197"/>
    <rect x="23" y="29" width="1" height="1" fill="#6c3fb5" fill-opacity="0.210"/>
    <rect x="24" y="29" width="1" height="1" fill="#6c3fb5" fill-opacity="0.224"/>
    <rect x="25" y="29" width="1" height="1" fill="#6c3fb5" fill-opacity="0.237"/>
    <rect x="26" y="29" width="1" height="1" fill="#6c3fb5" fill-opacity="0.250"/>
    <rect x="27" y="29" width="1" height="1" fill="#6c3fb5" fill-opacity="0.262"/>
    <rect x="28" y="29" width="1" height="1" fill="#6c3fb5" fill-opacity="0.273"/>
    <rect x="29" y="29" width="1" height="1" fill="#6c3fb5" fill-opacity="0.283"/>
    <rect x="30" y="29" width="1" height="1" fill="#6c3fb5" fill-opacity="0.291"/>
    <rect x="31" y="29" width="1" height="1" fill="#6c3fb5" fill-opacity="0.296"/>
    <rect x="8" y="30" width="1" height="1" fill="#6c3fb5" fill-opacity="0.003"/>
    <rect x="9" y="30" width="1" height="1" fill="#6c3fb5" fill-opacity="0.016"/>
    <rect x="10" y="30" width="1" height="1" fill="#6c3fb5" fill-opacity="0.030"/>
    <rect x="11" y="30" width="1" height="1" fill="#6c3fb5" fill-opacity="0.044"/>
    <rect x="12" y="30" width="1" height="1" fill="#6c3fb5" fill-opacity="0.059"/>
    <rect x="13" y="30" width="1" height="1" fill="#6c3fb5" fill-opacity="0.073"/>
    <rect x="14" y="30" width="1" height="1" fill="#6c3fb5" fill-opacity="0.087"/>
    <rect x="15" y="30" width="1" height="1" fill="#6c3fb5" fill-opacity="0.102"/>
    <rect x="16" y="30" width="1" height="1" fill="#6c3fb5" fill-opacity="0.116"/>
    <rect x="17" y="30" width="1" height="1" fill="#6c3fb5" fill-opacity="0.130"/>
    <rect x="18" y="30" width="1" height="1" fill="#6c3fb5" fill-opacity="0.144"/>
    <rect x="19" y="30" width="1" height="1" fill="#6c3fb5" fill-opacity="0.159"/>
    <rect x="20" y="30" width="1" height="1" fill="#6c3fb5" fill-opacity="0.173"/>
    <rect x="21" y="30" width="1" height="1" fill="#6c3fb5" fill-opacity="0.187"/>
    <rect x="22" y="30" width="1" height="1" fill="#6c3fb5" fill-opacity="0.201"/>
    <rect x="23" y="30" width="1" height="1" fill="#6c3fb5" fill-opacity="0.215"/>
    <rect x="24" y="30" width="1" height="1" fill="#6c3fb5" fill-opacity="0.229"/>
    <rect x="25" y="30" width="1" height="1" fill="#6c3fb5" fill-opacity="0.243"/>
    <rect x="26" y="30" width="1" height="1" fill="#6c3fb5" fill-opacity="0.257"/>
    <rect x="27" y="30" width="1" height="1" fill="#6c3fb5" fill-opacity="0.270"/>
    <rect x="28" y="30" width="1" height="1" fill="#6c3fb5" fill-opacity="0.283"/>
    <rect x="29" y="30" width="1" height="1" fill="#6c3fb5" fill-opacity="0.295"/>
    <rect x="30" y="30" width="1" height="1" fill="#6c3fb5" fill-opacity="0.306"/>
    <rect x="31" y="30" width="1" height="1" fill="#6c3fb5" fill-opacity="0.313"/>
    <rect x="8" y="31" width="1" height="1" fill="#6c3fb5" fill-opacity="0.003"/>
    <rect x="9" y="31" width="1" height="1" fill="#6c3fb5" fill-opacity="0.017"/>
    <rect x="10" y="31" width="1" height="1" fill="#6c3fb5" fill-opacity="0.031"/>
    <rect x="11" y="31" width="1" height="1" fill="#6c3fb5" fill-opacity="0.045"/>
    <rect x="12" y="31" width="1" height="1" fill="#6c3fb5" fill-opacity="0.060"/>
    <rect x="13" y="31" width="1" height="1" fill="#6c3fb5" fill-opacity="0.074"/>
    <rect x="14" y="31" width="1" height="1" fill="#6c3fb5" fill-opacity="0.089"/>
    <rect x="15" y="31" width="1" height="1" fill="#6c3fb5" fill-opacity="0.103"/>
    <rect x="16" y="31" width="1" height="1" fill="#6c3fb5" fill-opacity="0.117"/>
    <rect x="17" y="31" width="1" height="1" fill="#6c3fb5" fill-opacity="0.132"/>
    <rect x="18" y="31" width="1" height="1" fill="#6c3fb5" fill-opacity="0.146"/>
    <rect x="19" y="31" width="1" height="1" fill="#6c3fb5" fill-opacity="0.160"/>
    <rect x="20" y="31" width="1" height="1" fill="#6c3fb5" fill-opacity="0.175"/>
    <rect x="21" y="31" width="1" height="1" fill="#6c3fb5" fill-opacity="0.189"/>
    <rect x="22" y="31" width="1" height="1" fill="#6c3fb5" fill-opacity="0.203"/>
    <rect x="23" y="31" width="1" height="1" fill="#6c3fb5" fill-opacity="0.218"/>
    <rect x="24" y="31" width="1" height="1" fill="#6c3fb5" fill-opacity="0.232"/>
    <rect x="25" y="31" width="1" height="1" fill="#6c3fb5" fill-opacity="0.246"/>
    <rect x="26" y="31" width="1" height="1" fill="#6c3fb5" fill-opacity="0.260"/>
    <rect x="27" y="31" width="1" height="1" fill="#6c3fb5" fill-opacity="0.275"/>
    <rect x="28" y="31" width="1" height="1" fill="#6c3fb5" fill-opacity="0.289"/>
    <rect x="29" y="31" width="1" height="1" fill="#6c3fb5" fill-opacity="0.303"/>
    <rect x="30" y="31" width="1" height="1" fill="#6c3fb5" fill-opacity="0.316"/>
    <rect x="31" y="31" width="1" height="1" fill="#6c3fb5" fill-opacity="0.328"/>
  </g>
</svg>
