<svg xmlns="http://www.w3.org/2000/svg" width="16" height="16" viewBox="0 0 16 16">
  <!-- Rogue tooltip smoke (baked #272031): the board plate radial (#272031 -> #19141f at 50 % -> #0e0b13) as alpha over the #0e0b13 plate, centre 30 % / 18 %, stretched over the plate. -->
  <g shape-rendering="crispEdges">
    <rect x="0" y="0" width="1" height="1" fill="#272031" fill-opacity="0.728"/>
    <rect x="1" y="0" width="1" height="1" fill="#272031" fill-opacity="0.760"/>
    <rect x="2" y="0" width="1" height="1" fill="#272031" fill-opacity="0.786"/>
    <rect x="3" y="0" width="1" height="1" fill="#272031" fill-opacity="0.806"/>
    <rect x="4" y="0" width="1" height="1" fill="#272031" fill-opacity="0.815"/>
    <rect x="5" y="0" width="1" height="1" fill="#272031" fill-opacity="0.812"/>
    <rect x="6" y="0" width="1" height="1" fill="#272031" fill-opacity="0.799"/>
    <rect x="7" y="0" width="1" height="1" fill="#272031" fill-opacity="0.777"/>
    <rect x="8" y="0" width="1" height="1" fill="#272031" fill-opacity="0.747"/>
    <rect x="9" y="0" width="1" height="1" fill="#272031" fill-opacity="0.714"/>
    <rect x="10" y="0" width="1" height="1" fill="#272031" fill-opacity="0.677"/>
    <rect x="11" y="0" width="1" height="1" fill="#272031" fill-opacity="0.638"/>
    <rect x="12" y="0" width="1" height="1" fill="#272031" fill-opacity="0.597"/>
    <rect x="13" y="0" width="1" height="1" fill="#272031" fill-opacity="0.556"/>
    <rect x="14" y="0" width="1" height="1" fill="#272031" fill-opacity="0.513"/>
    <rect x="15" y="0" width="1" height="1" fill="#272031" fill-opacity="0.470"/>
    <rect x="0" y="1" width="1" height="1" fill="#272031" fill-opacity="0.773"/>
    <rect x="1" y="1" width="1" height="1" fill="#272031" fill-opacity="0.812"/>
    <rect x="2" y="1" width="1" height="1" fill="#272031" fill-opacity="0.848"/>
    <rect x="3" y="1" width="1" height="1" fill="#272031" fill-opacity="0.876"/>
    <rect x="4" y="1" width="1" height="1" fill="#272031" fill-opacity="0.891"/>
    <rect x="5" y="1" width="1" height="1" fill="#272031" fill-opacity="0.887"/>
    <rect x="6" y="1" width="1" height="1" fill="#272031" fill-opacity="0.866"/>
    <rect x="7" y="1" width="1" height="1" fill="#272031" fill-opacity="0.834"/>
    <rect x="8" y="1" width="1" height="1" fill="#272031" fill-opacity="0.797"/>
    <rect x="9" y="1" width="1" height="1" fill="#272031" fill-opacity="0.756"/>
    <rect x="10" y="1" width="1" height="1" fill="#272031" fill-opacity="0.714"/>
    <rect x="11" y="1" width="1" height="1" fill="#272031" fill-opacity="0.670"/>
    <rect x="12" y="1" width="1" height="1" fill="#272031" fill-opacity="0.626"/>
    <rect x="13" y="1" width="1" height="1" fill="#272031" fill-opacity="0.582"/>
    <rect x="14" y="1" width="1" height="1" fill="#272031" fill-opacity="0.537"/>
    <rect x="15" y="1" width="1" height="1" fill="#272031" fill-opacity="0.492"/>
    <rect x="0" y="2" width="1" height="1" fill="#272031" fill-opacity="0.797"/>
    <rect x="1" y="2" width="1" height="1" fill="#272031" fill-opacity="0.843"/>
    <rect x="2" y="2" width="1" height="1" fill="#272031" fill-opacity="0.887"/>
    <rect x="3" y="2" width="1" height="1" fill="#272031" fill-opacity="0.930"/>
    <rect x="4" y="2" width="1" height="1" fill="#272031" fill-opacity="0.963"/>
    <rect x="5" y="2" width="1" height="1" fill="#272031" fill-opacity="0.952"/>
    <rect x="6" y="2" width="1" height="1" fill="#272031" fill-opacity="0.913"/>
    <rect x="7" y="2" width="1" height="1" fill="#272031" fill-opacity="0.870"/>
    <rect x="8" y="2" width="1" height="1" fill="#272031" fill-opacity="0.824"/>
    <rect x="9" y="2" width="1" height="1" fill="#272031" fill-opacity="0.779"/>
    <rect x="10" y="2" width="1" height="1" fill="#272031" fill-opacity="0.733"/>
    <rect x="11" y="2" width="1" height="1" fill="#272031" fill-opacity="0.687"/>
    <rect x="12" y="2" width="1" height="1" fill="#272031" fill-opacity="0.641"/>
    <rect x="13" y="2" width="1" height="1" fill="#272031" fill-opacity="0.595"/>
    <rect x="14" y="2" width="1" height="1" fill="#272031" fill-opacity="0.548"/>
    <rect x="15" y="2" width="1" height="1" fill="#272031" fill-opacity="0.502"/>
    <rect x="0" y="3" width="1" height="1" fill="#272031" fill-opacity="0.794"/>
    <rect x="1" y="3" width="1" height="1" fill="#272031" fill-opacity="0.838"/>
    <rect x="2" y="3" width="1" height="1" fill="#272031" fill-opacity="0.881"/>
    <rect x="3" y="3" width="1" height="1" fill="#272031" fill-opacity="0.921"/>
    <rect x="4" y="3" width="1" height="1" fill="#272031" fill-opacity="0.948"/>
    <rect x="5" y="3" width="1" height="1" fill="#272031" fill-opacity="0.940"/>
    <rect x="6" y="3" width="1" height="1" fill="#272031" fill-opacity="0.906"/>
    <rect x="7" y="3" width="1" height="1" fill="#272031" fill-opacity="0.864"/>
    <rect x="8" y="3" width="1" height="1" fill="#272031" fill-opacity="0.820"/>
    <rect x="9" y="3" width="1" height="1" fill="#272031" fill-opacity="0.776"/>
    <rect x="10" y="3" width="1" height="1" fill="#272031" fill-opacity="0.730"/>
    <rect x="11" y="3" width="1" height="1" fill="#272031" fill-opacity="0.685"/>
    <rect x="12" y="3" width="1" height="1" fill="#272031" fill-opacity="0.639"/>
    <rect x="13" y="3" width="1" height="1" fill="#272031" fill-opacity="0.593"/>
    <rect x="14" y="3" width="1" height="1" fill="#272031" fill-opacity="0.547"/>
    <rect x="15" y="3" width="1" height="1" fill="#272031" fill-opacity="0.501"/>
    <rect x="0" y="4" width="1" height="1" fill="#272031" fill-opacity="0.763"/>
    <rect x="1" y="4" width="1" height="1" fill="#272031" fill-opacity="0.801"/>
    <rect x="2" y="4" width="1" height="1" fill="#272031" fill-opacity="0.834"/>
    <rect x="3" y="4" width="1" height="1" fill="#272031" fill-opacity="0.860"/>
    <rect x="4" y="4" width="1" height="1" fill="#272031" fill-opacity="0.873"/>
    <rect x="5" y="4" width="1" height="1" fill="#272031" fill-opacity="0.870"/>
    <rect x="6" y="4" width="1" height="1" fill="#272031" fill-opacity="0.851"/>
    <rect x="7" y="4" width="1" height="1" fill="#272031" fill-opacity="0.822"/>
    <rect x="8" y="4" width="1" height="1" fill="#272031" fill-opacity="0.786"/>
    <rect x="9" y="4" width="1" height="1" fill="#272031" fill-opacity="0.748"/>
    <rect x="10" y="4" width="1" height="1" fill="#272031" fill-opacity="0.706"/>
    <rect x="11" y="4" width="1" height="1" fill="#272031" fill-opacity="0.664"/>
    <rect x="12" y="4" width="1" height="1" fill="#272031" fill-opacity="0.621"/>
    <rect x="13" y="4" width="1" height="1" fill="#272031" fill-opacity="0.577"/>
    <rect x="14" y="4" width="1" height="1" fill="#272031" fill-opacity="0.532"/>
    <rect x="15" y="4" width="1" height="1" fill="#272031" fill-opacity="0.487"/>
    <rect x="0" y="5" width="1" height="1" fill="#272031" fill-opacity="0.715"/>
    <rect x="1" y="5" width="1" height="1" fill="#272031" fill-opacity="0.745"/>
    <rect x="2" y="5" width="1" height="1" fill="#272031" fill-opacity="0.770"/>
    <rect x="3" y="5" width="1" height="1" fill="#272031" fill-opacity="0.788"/>
    <rect x="4" y="5" width="1" height="1" fill="#272031" fill-opacity="0.796"/>
    <rect x="5" y="5" width="1" height="1" fill="#272031" fill-opacity="0.794"/>
    <rect x="6" y="5" width="1" height="1" fill="#272031" fill-opacity="0.782"/>
    <rect x="7" y="5" width="1" height="1" fill="#272031" fill-opacity="0.761"/>
    <rect x="8" y="5" width="1" height="1" fill="#272031" fill-opacity="0.734"/>
    <rect x="9" y="5" width="1" height="1" fill="#272031" fill-opacity="0.702"/>
    <rect x="10" y="5" width="1" height="1" fill="#272031" fill-opacity="0.666"/>
    <rect x="11" y="5" width="1" height="1" fill="#272031" fill-opacity="0.628"/>
    <rect x="12" y="5" width="1" height="1" fill="#272031" fill-opacity="0.589"/>
    <rect x="13" y="5" width="1" height="1" fill="#272031" fill-opacity="0.548"/>
    <rect x="14" y="5" width="1" height="1" fill="#272031" fill-opacity="0.506"/>
    <rect x="15" y="5" width="1" height="1" fill="#272031" fill-opacity="0.463"/>
    <rect x="0" y="6" width="1" height="1" fill="#272031" fill-opacity="0.655"/>
    <rect x="1" y="6" width="1" height="1" fill="#272031" fill-opacity="0.680"/>
    <rect x="2" y="6" width="1" height="1" fill="#272031" fill-opacity="0.700"/>
    <rect x="3" y="6" width="1" height="1" fill="#272031" fill-opacity="0.713"/>
    <rect x="4" y="6" width="1" height="1" fill="#272031" fill-opacity="0.719"/>
    <rect x="5" y="6" width="1" height="1" fill="#272031" fill-opacity="0.717"/>
    <rect x="6" y="6" width="1" height="1" fill="#272031" fill-opacity="0.708"/>
    <rect x="7" y="6" width="1" height="1" fill="#272031" fill-opacity="0.693"/>
    <rect x="8" y="6" width="1" height="1" fill="#272031" fill-opacity="0.671"/>
    <rect x="9" y="6" width="1" height="1" fill="#272031" fill-opacity="0.644"/>
    <rect x="10" y="6" width="1" height="1" fill="#272031" fill-opacity="0.614"/>
    <rect x="11" y="6" width="1" height="1" fill="#272031" fill-opacity="0.581"/>
    <rect x="12" y="6" width="1" height="1" fill="#272031" fill-opacity="0.545"/>
    <rect x="13" y="6" width="1" height="1" fill="#272031" fill-opacity="0.508"/>
    <rect x="14" y="6" width="1" height="1" fill="#272031" fill-opacity="0.469"/>
    <rect x="15" y="6" width="1" height="1" fill="#272031" fill-opacity="0.431"/>
    <rect x="0" y="7" width="1" height="1" fill="#272031" fill-opacity="0.590"/>
    <rect x="1" y="7" width="1" height="1" fill="#272031" fill-opacity="0.611"/>
    <rect x="2" y="7" width="1" height="1" fill="#272031" fill-opacity="0.626"/>
    <rect x="3" y="7" width="1" height="1" fill="#272031" fill-opacity="0.637"/>
    <rect x="4" y="7" width="1" height="1" fill="#272031" fill-opacity="0.642"/>
    <rect x="5" y="7" width="1" height="1" fill="#272031" fill-opacity="0.640"/>
    <rect x="6" y="7" width="1" height="1" fill="#272031" fill-opacity="0.633"/>
    <rect x="7" y="7" width="1" height="1" fill="#272031" fill-opacity="0.621"/>
    <rect x="8" y="7" width="1" height="1" fill="#272031" fill-opacity="0.603"/>
    <rect x="9" y="7" width="1" height="1" fill="#272031" fill-opacity="0.581"/>
    <rect x="10" y="7" width="1" height="1" fill="#272031" fill-opacity="0.555"/>
    <rect x="11" y="7" width="1" height="1" fill="#272031" fill-opacity="0.526"/>
    <rect x="12" y="7" width="1" height="1" fill="#272031" fill-opacity="0.494"/>
    <rect x="13" y="7" width="1" height="1" fill="#272031" fill-opacity="0.460"/>
    <rect x="14" y="7" width="1" height="1" fill="#272031" fill-opacity="0.427"/>
    <rect x="15" y="7" width="1" height="1" fill="#272031" fill-opacity="0.398"/>
    <rect x="0" y="8" width="1" height="1" fill="#272031" fill-opacity="0.521"/>
    <rect x="1" y="8" width="1" height="1" fill="#272031" fill-opacity="0.538"/>
    <rect x="2" y="8" width="1" height="1" fill="#272031" fill-opacity="0.552"/>
    <rect x="3" y="8" width="1" height="1" fill="#272031" fill-opacity="0.560"/>
    <rect x="4" y="8" width="1" height="1" fill="#272031" fill-opacity="0.564"/>
    <rect x="5" y="8" width="1" height="1" fill="#272031" fill-opacity="0.563"/>
    <rect x="6" y="8" width="1" height="1" fill="#272031" fill-opacity="0.557"/>
    <rect x="7" y="8" width="1" height="1" fill="#272031" fill-opacity="0.547"/>
    <rect x="8" y="8" width="1" height="1" fill="#272031" fill-opacity="0.532"/>
    <rect x="9" y="8" width="1" height="1" fill="#272031" fill-opacity="0.513"/>
    <rect x="10" y="8" width="1" height="1" fill="#272031" fill-opacity="0.490"/>
    <rect x="11" y="8" width="1" height="1" fill="#272031" fill-opacity="0.465"/>
    <rect x="12" y="8" width="1" height="1" fill="#272031" fill-opacity="0.438"/>
    <rect x="13" y="8" width="1" height="1" fill="#272031" fill-opacity="0.412"/>
    <rect x="14" y="8" width="1" height="1" fill="#272031" fill-opacity="0.387"/>
    <rect x="15" y="8" width="1" height="1" fill="#272031" fill-opacity="0.362"/>
    <rect x="0" y="9" width="1" height="1" fill="#272031" fill-opacity="0.450"/>
    <rect x="1" y="9" width="1" height="1" fill="#272031" fill-opacity="0.465"/>
    <rect x="2" y="9" width="1" height="1" fill="#272031" fill-opacity="0.476"/>
    <rect x="3" y="9" width="1" height="1" fill="#272031" fill-opacity="0.484"/>
    <rect x="4" y="9" width="1" height="1" fill="#272031" fill-opacity="0.487"/>
    <rect x="5" y="9" width="1" height="1" fill="#272031" fill-opacity="0.486"/>
    <rect x="6" y="9" width="1" height="1" fill="#272031" fill-opacity="0.481"/>
    <rect x="7" y="9" width="1" height="1" fill="#272031" fill-opacity="0.472"/>
    <rect x="8" y="9" width="1" height="1" fill="#272031" fill-opacity="0.459"/>
    <rect x="9" y="9" width="1" height="1" fill="#272031" fill-opacity="0.444"/>
    <rect x="10" y="9" width="1" height="1" fill="#272031" fill-opacity="0.426"/>
    <rect x="11" y="9" width="1" height="1" fill="#272031" fill-opacity="0.408"/>
    <rect x="12" y="9" width="1" height="1" fill="#272031" fill-opacity="0.388"/>
    <rect x="13" y="9" width="1" height="1" fill="#272031" fill-opacity="0.368"/>
    <rect x="14" y="9" width="1" height="1" fill="#272031" fill-opacity="0.345"/>
    <rect x="15" y="9" width="1" height="1" fill="#272031" fill-opacity="0.321"/>
    <rect x="0" y="10" width="1" height="1" fill="#272031" fill-opacity="0.390"/>
    <rect x="1" y="10" width="1" height="1" fill="#272031" fill-opacity="0.400"/>
    <rect x="2" y="10" width="1" height="1" fill="#272031" fill-opacity="0.407"/>
    <rect x="3" y="10" width="1" height="1" fill="#272031" fill-opacity="0.413"/>
    <rect x="4" y="10" width="2" height="1" fill="#272031" fill-opacity="0.415"/>
    <rect x="6" y="10" width="1" height="1" fill="#272031" fill-opacity="0.411"/>
    <rect x="7" y="10" width="1" height="1" fill="#272031" fill-opacity="0.405"/>
    <rect x="8" y="10" width="1" height="1" fill="#272031" fill-opacity="0.396"/>
    <rect x="9" y="10" width="1" height="1" fill="#272031" fill-opacity="0.385"/>
    <rect x="10" y="10" width="1" height="1" fill="#272031" fill-opacity="0.372"/>
    <rect x="11" y="10" width="1" height="1" fill="#272031" fill-opacity="0.357"/>
    <rect x="12" y="10" width="1" height="1" fill="#272031" fill-opacity="0.339"/>
    <rect x="13" y="10" width="1" height="1" fill="#272031" fill-opacity="0.320"/>
    <rect x="14" y="10" width="1" height="1" fill="#272031" fill-opacity="0.300"/>
    <rect x="15" y="10" width="1" height="1" fill="#272031" fill-opacity="0.278"/>
    <rect x="0" y="11" width="1" height="1" fill="#272031" fill-opacity="0.334"/>
    <rect x="1" y="11" width="1" height="1" fill="#272031" fill-opacity="0.343"/>
    <rect x="2" y="11" width="1" height="1" fill="#272031" fill-opacity="0.350"/>
    <rect x="3" y="11" width="1" height="1" fill="#272031" fill-opacity="0.354"/>
    <rect x="4" y="11" width="2" height="1" fill="#272031" fill-opacity="0.356"/>
    <rect x="6" y="11" width="1" height="1" fill="#272031" fill-opacity="0.353"/>
    <rect x="7" y="11" width="1" height="1" fill="#272031" fill-opacity="0.347"/>
    <rect x="8" y="11" width="1" height="1" fill="#272031" fill-opacity="0.340"/>
    <rect x="9" y="11" width="1" height="1" fill="#272031" fill-opacity="0.330"/>
    <rect x="10" y="11" width="1" height="1" fill="#272031" fill-opacity="0.318"/>
    <rect x="11" y="11" width="1" height="1" fill="#272031" fill-opacity="0.304"/>
    <rect x="12" y="11" width="1" height="1" fill="#272031" fill-opacity="0.289"/>
    <rect x="13" y="11" width="1" height="1" fill="#272031" fill-opacity="0.271"/>
    <rect x="14" y="11" width="1" height="1" fill="#272031" fill-opacity="0.252"/>
    <rect x="15" y="11" width="1" height="1" fill="#272031" fill-opacity="0.232"/>
    <rect x="0" y="12" width="1" height="1" fill="#272031" fill-opacity="0.278"/>
    <rect x="1" y="12" width="1" height="1" fill="#272031" fill-opacity="0.286"/>
    <rect x="2" y="12" width="1" height="1" fill="#272031" fill-opacity="0.292"/>
    <rect x="3" y="12" width="1" height="1" fill="#272031" fill-opacity="0.296"/>
    <rect x="4" y="12" width="1" height="1" fill="#272031" fill-opacity="0.298"/>
    <rect x="5" y="12" width="1" height="1" fill="#272031" fill-opacity="0.297"/>
    <rect x="6" y="12" width="1" height="1" fill="#272031" fill-opacity="0.295"/>
    <rect x="7" y="12" width="1" height="1" fill="#272031" fill-opacity="0.290"/>
    <rect x="8" y="12" width="1" height="1" fill="#272031" fill-opacity="0.283"/>
    <rect x="9" y="12" width="1" height="1" fill="#272031" fill-opacity="0.274"/>
    <rect x="10" y="12" width="1" height="1" fill="#272031" fill-opacity="0.263"/>
    <rect x="11" y="12" width="1" height="1" fill="#272031" fill-opacity="0.251"/>
    <rect x="12" y="12" width="1" height="1" fill="#272031" fill-opacity="0.237"/>
    <rect x="13" y="12" width="1" height="1" fill="#272031" fill-opacity="0.221"/>
    <rect x="14" y="12" width="1" height="1" fill="#272031" fill-opacity="0.203"/>
    <rect x="15" y="12" width="1" height="1" fill="#272031" fill-opacity="0.184"/>
    <rect x="0" y="13" width="1" height="1" fill="#272031" fill-opacity="0.221"/>
    <rect x="1" y="13" width="1" height="1" fill="#272031" fill-opacity="0.229"/>
    <rect x="2" y="13" width="1" height="1" fill="#272031" fill-opacity="0.234"/>
    <rect x="3" y="13" width="1" height="1" fill="#272031" fill-opacity="0.238"/>
    <rect x="4" y="13" width="2" height="1" fill="#272031" fill-opacity="0.239"/>
    <rect x="6" y="13" width="1" height="1" fill="#272031" fill-opacity="0.237"/>
    <rect x="7" y="13" width="1" height="1" fill="#272031" fill-opacity="0.232"/>
    <rect x="8" y="13" width="1" height="1" fill="#272031" fill-opacity="0.226"/>
    <rect x="9" y="13" width="1" height="1" fill="#272031" fill-opacity="0.218"/>
    <rect x="10" y="13" width="1" height="1" fill="#272031" fill-opacity="0.208"/>
    <rect x="11" y="13" width="1" height="1" fill="#272031" fill-opacity="0.197"/>
    <rect x="12" y="13" width="1" height="1" fill="#272031" fill-opacity="0.183"/>
    <rect x="13" y="13" width="1" height="1" fill="#272031" fill-opacity="0.169"/>
    <rect x="14" y="13" width="1" height="1" fill="#272031" fill-opacity="0.153"/>
    <rect x="15" y="13" width="1" height="1" fill="#272031" fill-opacity="0.135"/>
    <rect x="0" y="14" width="1" height="1" fill="#272031" fill-opacity="0.165"/>
    <rect x="1" y="14" width="1" height="1" fill="#272031" fill-opacity="0.171"/>
    <rect x="2" y="14" width="1" height="1" fill="#272031" fill-opacity="0.176"/>
    <rect x="3" y="14" width="1" height="1" fill="#272031" fill-opacity="0.180"/>
    <rect x="4" y="14" width="2" height="1" fill="#272031" fill-opacity="0.181"/>
    <rect x="6" y="14" width="1" height="1" fill="#272031" fill-opacity="0.178"/>
    <rect x="7" y="14" width="1" height="1" fill="#272031" fill-opacity="0.174"/>
    <rect x="8" y="14" width="1" height="1" fill="#272031" fill-opacity="0.169"/>
    <rect x="9" y="14" width="1" height="1" fill="#272031" fill-opacity="0.161"/>
    <rect x="10" y="14" width="1" height="1" fill="#272031" fill-opacity="0.152"/>
    <rect x="11" y="14" width="1" height="1" fill="#272031" fill-opacity="0.142"/>
    <rect x="12" y="14" width="1" height="1" fill="#272031" fill-opacity="0.129"/>
    <rect x="13" y="14" width="1" height="1" fill="#272031" fill-opacity="0.116"/>
    <rect x="14" y="14" width="1" height="1" fill="#272031" fill-opacity="0.101"/>
    <rect x="15" y="14" width="1" height="1" fill="#272031" fill-opacity="0.084"/>
    <rect x="0" y="15" width="1" height="1" fill="#272031" fill-opacity="0.107"/>
    <rect x="1" y="15" width="1" height="1" fill="#272031" fill-opacity="0.114"/>
    <rect x="2" y="15" width="1" height="1" fill="#272031" fill-opacity="0.118"/>
    <rect x="3" y="15" width="1" height="1" fill="#272031" fill-opacity="0.121"/>
    <rect x="4" y="15" width="1" height="1" fill="#272031" fill-opacity="0.123"/>
    <rect x="5" y="15" width="1" height="1" fill="#272031" fill-opacity="0.122"/>
    <rect x="6" y="15" width="1" height="1" fill="#272031" fill-opacity="0.120"/>
    <rect x="7" y="15" width="1" height="1" fill="#272031" fill-opacity="0.117"/>
    <rect x="8" y="15" width="1" height="1" fill="#272031" fill-opacity="0.111"/>
    <rect x="9" y="15" width="1" height="1" fill="#272031" fill-opacity="0.104"/>
    <rect x="10" y="15" width="1" height="1" fill="#272031" fill-opacity="0.096"/>
    <rect x="11" y="15" width="1" height="1" fill="#272031" fill-opacity="0.086"/>
    <rect x="12" y="15" width="1" height="1" fill="#272031" fill-opacity="0.075"/>
    <rect x="13" y="15" width="1" height="1" fill="#272031" fill-opacity="0.062"/>
    <rect x="14" y="15" width="1" height="1" fill="#272031" fill-opacity="0.048"/>
    <rect x="15" y="15" width="1" height="1" fill="#272031" fill-opacity="0.033"/>
  </g>
</svg>
