<svg xmlns="http://www.w3.org/2000/svg" width="256" height="16" viewBox="0 0 256 16">
  <!-- Shaman tooltip footer separator: the four elements (earth, fire, water, air) in pale
       stone between two blue lines fading out. Stretched like sep.svg, glyphs drawn 25 %
       narrower. -->
  <defs>
    <linearGradient id="l" x1="0" y1="0" x2="1" y2="0">
      <stop offset="0" stop-color="#0070dd" stop-opacity="0"/>
      <stop offset="1" stop-color="#0070dd" stop-opacity="0.55"/>
    </linearGradient>
    <linearGradient id="r" x1="0" y1="0" x2="1" y2="0">
      <stop offset="0" stop-color="#0070dd" stop-opacity="0.55"/>
      <stop offset="1" stop-color="#0070dd" stop-opacity="0"/>
    </linearGradient>
  </defs>
  <rect x="0" y="8" width="90" height="1" fill="url(#l)"/>
  <rect x="166" y="8" width="90" height="1" fill="url(#r)"/>
  <g fill="#b8c2cc" fill-opacity="0.72">
    <path transform="translate(96.5 0.5) scale(0.703 0.9375)" d="M1 13.5 L5.8 5 L8.6 9.4 L10.6 6.6 L15 13.5 Z"/>
    <path transform="translate(113.75 0.5) scale(0.703 0.9375)" d="M8 1.5 C10.8 4.4 12.8 6.8 12.8 9.6 C12.8 12.6 10.6 14.5 8 14.5 C5.4 14.5 3.2 12.6 3.2 9.6 C3.2 7.6 4.4 6.2 5.4 5.2 C5.6 6.8 6.4 7.9 7.4 8.3 C7 6 7.2 3.6 8 1.5 Z"/>
    <path transform="translate(131 0.5) scale(0.703 0.9375)" d="M8 1.5 C10.6 5.2 12.8 7.6 12.8 10 C12.8 12.8 10.6 14.5 8 14.5 C5.4 14.5 3.2 12.8 3.2 10 C3.2 7.6 5.4 5.2 8 1.5 Z"/>
  </g>
  <path transform="translate(148.25 0.5) scale(0.703 0.9375)" d="M2 5.5 H10 C12.4 5.5 12.8 2.6 10.8 2.4 M2 9 H12.6 C15 9 15 12.4 12.8 12.4 M3.5 12.4 H8" fill="none" stroke="#b8c2cc" stroke-opacity="0.72" stroke-width="1.8" stroke-linecap="round"/>
</svg>
